# 3ds Max Wavefront OBJ Exporter v0.97b - (c)2007 guruware
# File Created: 14.05.2014 01:12:58

mtllib steve.mtl

#
# object Box001
#

v  0.2336 0.6892 -0.0772
v  -0.2260 0.6892 -0.0772
v  -0.2260 0.6892 -0.3116
v  0.2336 0.6892 -0.3116
v  0.2336 1.3844 -0.0772
v  0.2336 1.3844 -0.3116
v  -0.2260 1.3844 -0.3116
v  -0.2260 1.3844 -0.0772
# 8 vertices

vn 0.0000 -1.0000 -0.0000
vn 0.0000 1.0000 -0.0000
vn 1.0000 0.0000 -0.0000
vn -0.0000 0.0000 -1.0000
vn -1.0000 0.0000 0.0000
vn 0.0000 0.0000 1.0000
# 6 vertex normals

vt 0.5621 0.4992 0.0000
vt 0.4380 0.4992 0.0000
vt 0.4380 0.3751 0.0000
vt 0.5621 0.3751 0.0000
vt 0.3138 0.4993 0.0000
vt 0.3138 0.3757 0.0000
vt 0.4367 0.3757 0.0000
vt 0.4367 0.4993 0.0000
vt 0.4380 0.0012 0.0000
vt 0.5000 0.0012 0.0000
vt 0.5000 0.3748 0.0000
vt 0.4380 0.3748 0.0000
vt 0.5005 0.0006 0.0000
vt 0.6248 0.0006 0.0000
vt 0.6248 0.3748 0.0000
vt 0.5005 0.3748 0.0000
vt 0.2511 0.0012 0.0000
vt 0.3122 0.0012 0.0000
vt 0.3122 0.3743 0.0000
vt 0.2511 0.3743 0.0000
vt 0.3132 0.0013 0.0000
vt 0.4372 0.0013 0.0000
vt 0.4372 0.3747 0.0000
vt 0.3132 0.3747 0.0000
# 24 texture coords

g Box001
usemtl 01___Default
s 2
f 1/1/1 2/2/1 3/3/1 
f 3/3/1 4/4/1 1/1/1 
s 4
f 5/5/2 6/6/2 7/7/2 
f 7/7/2 8/8/2 5/5/2 
s 8
f 1/9/3 4/10/3 6/11/3 
f 6/11/3 5/12/3 1/9/3 
s 16
f 4/13/4 3/14/4 7/15/4 
f 7/15/4 6/16/4 4/13/4 
s 32
f 3/17/5 2/18/5 8/19/5 
f 8/19/5 7/20/5 3/17/5 
s 64
f 2/21/6 1/22/6 5/23/6 
f 5/23/6 8/24/6 2/21/6 
# 12 faces

#
# object Box002
#

v  0.2346 1.3851 0.0361
v  -0.2250 1.3851 0.0361
v  -0.2250 1.3851 -0.4236
v  0.2346 1.3851 -0.4236
v  0.2346 1.8447 0.0361
v  0.2346 1.8447 -0.4236
v  -0.2250 1.8447 -0.4236
v  -0.2250 1.8447 0.0361
# 8 vertices

vn 0.0000 -1.0000 -0.0000
vn 0.0000 1.0000 -0.0000
vn 1.0000 0.0000 -0.0000
vn -0.0000 0.0000 -1.0000
vn -1.0000 0.0000 0.0000
vn 0.0000 0.0000 1.0000
# 6 vertex normals

vt 0.2504 0.9999 0.0000
vt 0.2504 0.7502 0.0000
vt 0.3749 0.7502 0.0000
vt 0.3749 0.9999 0.0000
vt 0.1255 0.7500 0.0000
vt 0.2496 0.7500 0.0000
vt 0.2496 0.9993 0.0000
vt 0.1255 0.9993 0.0000
vt 0.2510 0.5002 0.0000
vt 0.3748 0.5002 0.0000
vt 0.3748 0.7496 0.0000
vt 0.2510 0.7496 0.0000
vt 0.3754 0.5002 0.0000
vt 0.4998 0.5002 0.0000
vt 0.4998 0.7496 0.0000
vt 0.3754 0.7496 0.0000
vt 0.0003 0.5003 0.0000
vt 0.1250 0.5003 0.0000
vt 0.1250 0.7496 0.0000
vt 0.0003 0.7496 0.0000
vt 0.1253 0.5003 0.0000
vt 0.2496 0.5003 0.0000
vt 0.2496 0.7496 0.0000
vt 0.1253 0.7496 0.0000
# 24 texture coords

g Box002
usemtl 01___Default
s 2
f 9/25/7 10/26/7 11/27/7 
f 11/27/7 12/28/7 9/25/7 
s 4
f 13/29/8 14/30/8 15/31/8 
f 15/31/8 16/32/8 13/29/8 
s 8
f 9/33/9 12/34/9 14/35/9 
f 14/35/9 13/36/9 9/33/9 
s 16
f 12/37/10 11/38/10 15/39/10 
f 15/39/10 14/40/10 12/37/10 
s 32
f 11/41/11 10/42/11 16/43/11 
f 16/43/11 15/44/11 11/41/11 
s 64
f 10/45/12 9/46/12 13/47/12 
f 13/47/12 16/48/12 10/45/12 
# 12 faces

#
# object Box003
#

v  0.4676 0.6897 -0.0792
v  0.2356 0.6897 -0.0792
v  0.2356 0.6897 -0.3112
v  0.4676 0.6897 -0.3112
v  0.4676 1.3855 -0.0792
v  0.4676 1.3855 -0.3112
v  0.2356 1.3855 -0.3112
v  0.2356 1.3855 -0.0792
# 8 vertices

vn 0.0000 -1.0000 -0.0000
vn 0.0000 1.0000 -0.0000
vn 1.0000 0.0000 -0.0000
vn -0.0000 0.0000 -1.0000
vn -1.0000 0.0000 0.0000
vn 0.0000 0.0000 1.0000
# 6 vertex normals

vt 0.7500 0.4996 0.0000
vt 0.7500 0.3750 0.0000
vt 0.8125 0.3750 0.0000
vt 0.8125 0.4996 0.0000
vt 0.6875 0.3751 0.0000
vt 0.7500 0.3751 0.0000
vt 0.7500 0.4999 0.0000
vt 0.6875 0.4999 0.0000
vt 0.7500 0.0004 0.0000
vt 0.8125 0.0004 0.0000
vt 0.8125 0.3749 0.0000
vt 0.7500 0.3749 0.0000
vt 0.8127 0.0004 0.0000
vt 0.8746 0.0004 0.0000
vt 0.8746 0.3744 0.0000
vt 0.8127 0.3744 0.0000
vt 0.6250 0.0001 0.0000
vt 0.6875 0.0001 0.0000
vt 0.6875 0.3750 0.0000
vt 0.6250 0.3750 0.0000
vt 0.6877 0.0004 0.0000
vt 0.6877 0.3749 0.0000
# 22 texture coords

g Box003
usemtl 01___Default
s 2
f 17/49/13 18/50/13 19/51/13 
f 19/51/13 20/52/13 17/49/13 
s 4
f 21/53/14 22/54/14 23/55/14 
f 23/55/14 24/56/14 21/53/14 
s 8
f 17/57/15 20/58/15 22/59/15 
f 22/59/15 21/60/15 17/57/15 
s 16
f 20/61/16 19/62/16 23/63/16 
f 23/63/16 22/64/16 20/61/16 
s 32
f 19/65/17 18/66/17 24/67/17 
f 24/67/17 23/68/17 19/65/17 
s 64
f 18/69/18 17/57/18 21/60/18 
f 21/60/18 24/70/18 18/69/18 
# 12 faces

#
# object Box004
#

v  -0.2261 0.6897 -0.0792
v  -0.4580 0.6897 -0.0792
v  -0.4580 0.6897 -0.3112
v  -0.2261 0.6897 -0.3112
v  -0.2261 1.3855 -0.0792
v  -0.2261 1.3855 -0.3112
v  -0.4580 1.3855 -0.3112
v  -0.4580 1.3855 -0.0792
# 8 vertices

vn 0.0000 -1.0000 -0.0000
vn 0.0000 1.0000 -0.0000
vn 1.0000 0.0000 -0.0000
vn -0.0000 0.0000 -1.0000
vn -1.0000 0.0000 0.0000
vn 0.0000 0.0000 1.0000
# 6 vertex normals

vt 0.7500 0.4996 0.0000
vt 0.7500 0.3750 0.0000
vt 0.8125 0.3750 0.0000
vt 0.8125 0.4996 0.0000
vt 0.6875 0.3751 0.0000
vt 0.7500 0.3751 0.0000
vt 0.7500 0.4999 0.0000
vt 0.6875 0.4999 0.0000
vt 0.7500 0.0004 0.0000
vt 0.8125 0.0004 0.0000
vt 0.8125 0.3749 0.0000
vt 0.7500 0.3749 0.0000
vt 0.8127 0.0004 0.0000
vt 0.8746 0.0004 0.0000
vt 0.8746 0.3744 0.0000
vt 0.8127 0.3744 0.0000
vt 0.6250 0.0001 0.0000
vt 0.6875 0.0001 0.0000
vt 0.6875 0.3750 0.0000
vt 0.6250 0.3750 0.0000
vt 0.6877 0.0004 0.0000
vt 0.6877 0.3749 0.0000
# 22 texture coords

g Box004
usemtl 01___Default
s 2
f 25/71/19 26/72/19 27/73/19 
f 27/73/19 28/74/19 25/71/19 
s 4
f 29/75/20 30/76/20 31/77/20 
f 31/77/20 32/78/20 29/75/20 
s 8
f 25/79/21 28/80/21 30/81/21 
f 30/81/21 29/82/21 25/79/21 
s 16
f 28/83/22 27/84/22 31/85/22 
f 31/85/22 30/86/22 28/83/22 
s 32
f 27/87/23 26/88/23 32/89/23 
f 32/89/23 31/90/23 27/87/23 
s 64
f 26/91/24 25/79/24 29/82/24 
f 29/82/24 32/92/24 26/91/24 
# 12 faces

#
# object Box005
#

v  0.2352 -0.0052 -0.0792
v  0.0033 -0.0052 -0.0792
v  0.0033 -0.0052 -0.3112
v  0.2352 -0.0052 -0.3112
v  0.2352 0.6906 -0.0792
v  0.2352 0.6906 -0.3112
v  0.0033 0.6906 -0.3112
v  0.0033 0.6906 -0.0792
# 8 vertices

vn 0.0000 -1.0000 -0.0000
vn 0.0000 1.0000 -0.0000
vn 1.0000 0.0000 -0.0000
vn -0.0000 0.0000 -1.0000
vn -1.0000 0.0000 0.0000
vn 0.0000 0.0000 1.0000
# 6 vertex normals

vt 0.1250 0.4996 0.0000
vt 0.1250 0.3750 0.0000
vt 0.1875 0.3750 0.0000
vt 0.1875 0.4996 0.0000
vt 0.0626 0.3750 0.0000
vt 0.1250 0.4999 0.0000
vt 0.0626 0.4999 0.0000
vt 0.1251 0.0003 0.0000
vt 0.1875 0.0003 0.0000
vt 0.1875 0.3749 0.0000
vt 0.1251 0.3749 0.0000
vt 0.0626 0.0009 0.0000
vt 0.1245 0.0009 0.0000
vt 0.1245 0.3749 0.0000
vt 0.0626 0.3749 0.0000
vt 0.0000 0.0001 0.0000
vt 0.0625 0.0001 0.0000
vt 0.0625 0.3750 0.0000
vt 0.0000 0.3750 0.0000
vt 0.1876 0.0003 0.0000
vt 0.2499 0.0003 0.0000
vt 0.2499 0.3749 0.0000
vt 0.1876 0.3749 0.0000
# 23 texture coords

g Box005
usemtl 01___Default
s 2
f 33/93/25 34/94/25 35/95/25 
f 35/95/25 36/96/25 33/93/25 
s 4
f 37/97/26 38/94/26 39/98/26 
f 39/98/26 40/99/26 37/97/26 
s 8
f 33/100/27 36/101/27 38/102/27 
f 38/102/27 37/103/27 33/100/27 
s 16
f 36/104/28 35/105/28 39/106/28 
f 39/106/28 38/107/28 36/104/28 
s 32
f 35/108/29 34/109/29 40/110/29 
f 40/110/29 39/111/29 35/108/29 
s 64
f 34/112/30 33/113/30 37/114/30 
f 37/114/30 40/115/30 34/112/30 
# 12 faces

#
# object Box006
#

v  0.0022 -0.0052 -0.0792
v  -0.2297 -0.0052 -0.0792
v  -0.2297 -0.0052 -0.3112
v  0.0022 -0.0052 -0.3112
v  0.0022 0.6906 -0.0792
v  0.0022 0.6906 -0.3112
v  -0.2297 0.6906 -0.3112
v  -0.2297 0.6906 -0.0792
# 8 vertices

vn 0.0000 -1.0000 -0.0000
vn 0.0000 1.0000 -0.0000
vn 1.0000 0.0000 -0.0000
vn -0.0000 0.0000 -1.0000
vn -1.0000 0.0000 0.0000
vn 0.0000 0.0000 1.0000
# 6 vertex normals

vt 0.1250 0.4996 0.0000
vt 0.1250 0.3750 0.0000
vt 0.1875 0.3750 0.0000
vt 0.1875 0.4996 0.0000
vt 0.0626 0.3750 0.0000
vt 0.1250 0.4999 0.0000
vt 0.0626 0.4999 0.0000
vt 0.1251 0.0003 0.0000
vt 0.1875 0.0003 0.0000
vt 0.1875 0.3749 0.0000
vt 0.1251 0.3749 0.0000
vt 0.0626 0.0009 0.0000
vt 0.1245 0.0009 0.0000
vt 0.1245 0.3749 0.0000
vt 0.0626 0.3749 0.0000
vt 0.0000 0.0001 0.0000
vt 0.0625 0.0001 0.0000
vt 0.0625 0.3750 0.0000
vt 0.0000 0.3750 0.0000
vt 0.1876 0.0003 0.0000
vt 0.2499 0.0003 0.0000
vt 0.2499 0.3749 0.0000
vt 0.1876 0.3749 0.0000
# 23 texture coords

g Box006
usemtl 01___Default
s 2
f 41/116/31 42/117/31 43/118/31 
f 43/118/31 44/119/31 41/116/31 
s 4
f 45/120/32 46/117/32 47/121/32 
f 47/121/32 48/122/32 45/120/32 
s 8
f 41/123/33 44/124/33 46/125/33 
f 46/125/33 45/126/33 41/123/33 
s 16
f 44/127/34 43/128/34 47/129/34 
f 47/129/34 46/130/34 44/127/34 
s 32
f 43/131/35 42/132/35 48/133/35 
f 48/133/35 47/134/35 43/131/35 
s 64
f 42/135/36 41/136/36 45/137/36 
f 45/137/36 48/138/36 42/135/36 
# 12 faces

